<?xml version="1.0" standalone="no"?>
<!DOCTYPE svg PUBLIC "-//W3C//DTD SVG 20010904//EN"
 "http://www.w3.org/TR/2001/REC-SVG-20010904/DTD/svg10.dtd">
<svg version="1.0" xmlns="http://www.w3.org/2000/svg"
 width="338.000000pt" height="338.000000pt" viewBox="0 0 338.000000 338.000000"
 preserveAspectRatio="xMidYMid meet">
<metadata>
Created by potrace 1.11, written by Peter Selinger 2001-2013
</metadata>
<g transform="translate(0.000000,338.000000) scale(0.100000,-0.100000)"
fill="#000000" stroke="none">
<path d="M263 2592 c-65 -105 -133 -240 -133 -264 0 -10 40 -32 113 -63 105
-45 143 -62 259 -114 63 -28 73 -27 89 12 7 17 37 72 66 121 29 49 53 94 53
100 0 6 -8 16 -17 22 -10 6 -88 67 -173 136 -86 69 -165 130 -176 136 -19 10
-26 2 -81 -86z"/>
<path d="M2945 2609 c-55 -44 -107 -85 -115 -92 -100 -79 -160 -131 -160 -139
0 -5 13 -28 28 -51 16 -23 46 -77 68 -119 21 -43 43 -78 48 -78 5 0 106 41
223 91 138 59 213 97 213 106 0 36 -156 321 -192 351 -10 8 -37 -9 -113 -69z"/>
<path d="M836 2132 c-2 -4 -4 -205 -4 -448 l-1 -441 100 -1 c86 -1 99 1 100
16 1 9 2 153 3 319 l1 303 28 29 c27 29 29 30 122 28 84 -2 96 -5 119 -26 15
-14 26 -35 26 -50 l0 -26 95 1 c52 0 98 4 101 7 4 3 6 39 5 79 l-1 73 -73 71
-72 71 -272 1 c-150 0 -275 -2 -277 -6z"/>
<path d="M1768 2127 c-2 -7 -4 -142 -3 -302 l1 -290 146 -146 147 -146 104 -1
104 0 148 148 148 148 1 297 c1 341 15 305 -119 302 l-80 -2 -1 -245 -1 -245
-98 -98 c-83 -82 -100 -95 -113 -85 -8 7 -54 52 -101 99 l-86 86 2 241 c2 277
15 250 -114 250 -54 1 -83 -3 -85 -11z"/>
<path d="M14 1889 c-8 -14 -14 -326 -6 -377 5 -38 16 -42 73 -32 24 5 102 16
174 24 197 25 209 27 225 31 12 4 15 30 15 152 l-1 148 -56 11 c-31 6 -85 14
-121 18 -35 3 -77 8 -93 11 -143 24 -201 28 -210 14z"/>
<path d="M3287 1894 c-1 -1 -29 -5 -62 -9 -32 -3 -62 -8 -65 -10 -3 -1 -34 -6
-70 -9 -97 -10 -146 -17 -177 -25 l-27 -7 -1 -151 c0 -84 2 -151 5 -150 5 1
121 -13 151 -18 8 -1 40 -6 71 -9 30 -4 90 -12 134 -19 105 -16 116 -16 121 8
6 35 4 385 -2 396 -5 8 -70 10 -78 3z"/>
<path d="M550 1243 c-18 -7 -198 -83 -255 -108 -140 -62 -165 -76 -165 -90 0
-23 82 -184 141 -276 38 -59 54 -76 67 -71 21 8 366 281 370 293 2 5 -14 37
-36 72 -21 34 -52 90 -68 124 -16 35 -31 62 -34 62 -3 0 -12 -3 -20 -6z"/>
<path d="M2802 1238 c-5 -7 -20 -35 -32 -61 -12 -27 -41 -80 -65 -117 l-43
-68 161 -128 c89 -71 168 -134 175 -141 32 -30 49 -33 70 -10 45 50 182 302
182 337 0 6 -24 22 -52 35 -96 42 -379 165 -382 165 -2 0 -8 -6 -14 -12z"/>
</g>
</svg>
